<?xml version="1.0" encoding="utf-8"?>
<!-- Generator: Adobe Illustrator 16.0.0, SVG Export Plug-In . SVG Version: 6.00 Build 0)  -->
<!DOCTYPE svg PUBLIC "-//W3C//DTD SVG 1.1//EN" "http://www.w3.org/Graphics/SVG/1.1/DTD/svg11.dtd">
<svg version="1.1" id="Layer_1" xmlns="http://www.w3.org/2000/svg" xmlns:xlink="http://www.w3.org/1999/xlink" x="0px" y="0px"
	 width="440px" height="440px" viewBox="0 0 440 440" enable-background="new 0 0 440 440" xml:space="preserve">
<rect fill="#E8E8E8" width="440" height="440"/>
<g>
	<defs>
		<rect id="SVGID_1_" x="118.717" y="91" width="262.566" height="258"/>
	</defs>
	<clipPath id="SVGID_2_">
		<use xlink:href="#SVGID_1_"  overflow="visible"/>
	</clipPath>
	<g clip-path="url(#SVGID_2_)">
		<path fill="#638486" d="M314.109,208.354c0.684,0,1.348,0.082,2.027,0.102V96.423c0-2.911-2.359-5.267-5.268-5.267H123.985
			c-2.909,0-5.268,2.356-5.268,5.267v244.94c0,2.911,2.359,5.267,5.268,5.267h186.883c2.909,0,5.268-2.356,5.268-5.267v-3.236
			c-0.679,0.021-1.343,0.103-2.027,0.103c-36.032,0-65.347-29.131-65.347-64.938C248.762,237.484,278.077,208.354,314.109,208.354
			 M237.684,131.414h43.225c2.909,0,5.268,2.356,5.268,5.267c0,2.912-2.359,5.268-5.268,5.268h-43.225
			c-2.909,0-5.268-2.356-5.268-5.268C232.416,133.77,234.775,131.414,237.684,131.414 M237.684,164.294h43.225
			c2.909,0,5.268,2.356,5.268,5.268c0,2.911-2.359,5.267-5.268,5.267h-43.225c-2.909,0-5.268-2.356-5.268-5.267
			C232.416,166.65,234.775,164.294,237.684,164.294 M148.667,136.681c0-2.911,2.359-5.267,5.268-5.267h49.416
			c2.909,0,5.268,2.356,5.268,5.267v65.762c0,2.912-2.359,5.268-5.268,5.268h-49.416c-2.909,0-5.268-2.356-5.268-5.268V136.681z
			 M234.752,306.383h-80.816c-2.909,0-5.268-2.356-5.268-5.268c0-2.911,2.359-5.267,5.268-5.267h80.816
			c2.909,0,5.267,2.356,5.267,5.267C240.019,304.027,237.661,306.383,234.752,306.383 M234.752,273.503h-80.816
			c-2.909,0-5.268-2.356-5.268-5.268s2.359-5.267,5.268-5.267h80.816c2.909,0,5.267,2.355,5.267,5.267
			S237.661,273.503,234.752,273.503 M234.752,240.602h-80.816c-2.909,0-5.268-2.356-5.268-5.267c0-2.912,2.359-5.268,5.268-5.268
			h80.816c2.909,0,5.267,2.356,5.267,5.268C240.019,238.246,237.661,240.602,234.752,240.602 M237.684,207.72
			c-2.909,0-5.268-2.356-5.268-5.268c0-2.911,2.359-5.267,5.268-5.267h43.225c2.909,0,5.268,2.356,5.268,5.267
			c0,2.912-2.359,5.268-5.268,5.268H237.684z"/>
		<path fill="#4EC3E0" d="M314.109,213.62c-33.127,0-60.08,26.77-60.08,59.672c0,32.901,26.953,59.671,60.08,59.671
			c33.13,0,60.082-26.77,60.082-59.671C374.191,240.39,347.239,213.62,314.109,213.62 M337.077,278.554h-17.706v17.706
			c0,2.911-2.358,5.267-5.267,5.267s-5.268-2.356-5.268-5.267v-17.706h-17.695c-2.909,0-5.268-2.356-5.268-5.268
			c0-2.911,2.359-5.267,5.268-5.267h17.695v-17.696c0-2.911,2.359-5.267,5.268-5.267s5.267,2.356,5.267,5.267v17.696h17.706
			c2.909,0,5.268,2.356,5.268,5.267C342.345,276.198,339.986,278.554,337.077,278.554"/>
	</g>
</g>
</svg>
